<?xml version="1.0" encoding="UTF-8"?>
<!DOCTYPE svg PUBLIC "-//W3C//DTD SVG 1.1//EN" "http://www.w3.org/Graphics/SVG/1.1/DTD/svg11.dtd">
<svg version="1.1" id="Capa_1" xmlns="http://www.w3.org/2000/svg" xmlns:xlink="http://www.w3.org/1999/xlink" x="0px" y="0px" width="96px" height="96px" viewBox="0 0 96 96" enable-background="new 0 0 96 96" xml:space="preserve">
<path fill="#161616" d="M48,5.229c-23.195,0-41.998,18.803-41.998,41.998c0,23.195,18.803,41.998,41.998,41.998  c23.195,0,41.998-18.803,41.998-41.998C89.998,24.032,71.195,5.229,48,5.229z M58.571,28.247c-0.293,0-0.879,0.139-1.758,0.415  c-0.879,0.277-1.379,0.529-1.444,0.757C55.142,30.297,55,31.681,55,33.569v18.212c0,5.535-1.267,9.855-3.854,12.965  c-2.588,3.107-6.097,4.662-10.557,4.662c-1.107,0-2.028-0.293-2.777-0.879c-0.488-0.781-0.729-1.627-0.729-2.539  c0-0.813,0.311-1.514,0.929-2.1c0.618-0.586,1.336-0.879,2.15-0.879c0.781,0,1.619,0.496,2.514,1.49  c0.895,0.992,1.572,1.488,2.028,1.488c1.432,0,2.266-1.139,2.722-3.418C47.882,60.294,48,56.828,48,52.172V33.276  c0-2.083-0.021-3.353-0.281-3.809c-0.163-0.26-0.563-0.529-1.312-0.806c-0.749-0.276-1.275-0.415-1.633-0.415  c-0.13,0-0.181-0.276-0.181-0.83c0-0.586,0.039-0.911,0.104-0.977c4.493,0.195,6.856,0.293,7.084,0.293  c0.65,0,2.931-0.098,6.837-0.293c0.098,0.293,0.147,0.586,0.147,0.879C58.766,27.938,58.701,28.247,58.571,28.247z"/>
</svg>